<?xml version="1.0" encoding="UTF-8"?>
<!--Generator: Apple Native CoreSVG 232.5-->
<!DOCTYPE svg
PUBLIC "-//W3C//DTD SVG 1.1//EN"
       "http://www.w3.org/Graphics/SVG/1.1/DTD/svg11.dtd">
<svg version="1.1" xmlns="http://www.w3.org/2000/svg" xmlns:xlink="http://www.w3.org/1999/xlink" width="3300" height="2200">
 <!--glyph: "uni100926.medium", point size: 100.0, font version: "19.0d7e1", template writer version: "128"-->
 <style>.monochrome-0 {}

.multicolor-0:tintColor {}

.hierarchical-0:primary {}

.SFSymbolsPreview007AFF {fill:#007AFF;opacity:1.0}
</style>
 <g id="Notes">
  <rect height="2200" id="artboard" style="fill:white;opacity:1" width="3300" x="0" y="0"/>
  <line style="fill:none;stroke:black;opacity:1;stroke-width:0.5;" x1="263" x2="3036" y1="292" y2="292"/>
  <text style="stroke:none;fill:black;font-family:sans-serif;font-size:13;font-weight:bold;" transform="matrix(1 0 0 1 263 322)">Weight/Scale Variations</text>
  <text style="stroke:none;fill:black;font-family:sans-serif;font-size:13;text-anchor:middle;" transform="matrix(1 0 0 1 559.711 322)">Ultralight</text>
  <text style="stroke:none;fill:black;font-family:sans-serif;font-size:13;text-anchor:middle;" transform="matrix(1 0 0 1 856.422 322)">Thin</text>
  <text style="stroke:none;fill:black;font-family:sans-serif;font-size:13;text-anchor:middle;" transform="matrix(1 0 0 1 1153.13 322)">Light</text>
  <text style="stroke:none;fill:black;font-family:sans-serif;font-size:13;text-anchor:middle;" transform="matrix(1 0 0 1 1449.84 322)">Regular</text>
  <text style="stroke:none;fill:black;font-family:sans-serif;font-size:13;text-anchor:middle;" transform="matrix(1 0 0 1 1746.56 322)">Medium</text>
  <text style="stroke:none;fill:black;font-family:sans-serif;font-size:13;text-anchor:middle;" transform="matrix(1 0 0 1 2043.27 322)">Semibold</text>
  <text style="stroke:none;fill:black;font-family:sans-serif;font-size:13;text-anchor:middle;" transform="matrix(1 0 0 1 2339.98 322)">Bold</text>
  <text style="stroke:none;fill:black;font-family:sans-serif;font-size:13;text-anchor:middle;" transform="matrix(1 0 0 1 2636.69 322)">Heavy</text>
  <text style="stroke:none;fill:black;font-family:sans-serif;font-size:13;text-anchor:middle;" transform="matrix(1 0 0 1 2933.4 322)">Black</text>
  <line style="fill:none;stroke:black;opacity:1;stroke-width:0.5;" x1="263" x2="3036" y1="1903" y2="1903"/>
  <g transform="matrix(0.2 0 0 0.2 263 1933)">
   <path d="m46.2402 4.15039c21.5332 0 39.4531-17.8711 39.4531-39.4043s-17.9688-39.4043-39.502-39.4043c-21.4844 0-39.3555 17.8711-39.3555 39.4043s17.9199 39.4043 39.4043 39.4043Zm0-7.42188c-17.7246 0-31.8848-14.209-31.8848-31.9824s14.1113-31.9824 31.8359-31.9824c17.7734 0 32.0312 14.209 32.0312 31.9824s-14.209 31.9824-31.9824 31.9824Zm-17.9688-31.9824c0 2.14844 1.51367 3.61328 3.75977 3.61328h10.498v10.5957c0 2.19727 1.46484 3.71094 3.61328 3.71094 2.24609 0 3.71094-1.51367 3.71094-3.71094v-10.5957h10.5957c2.19727 0 3.71094-1.46484 3.71094-3.61328 0-2.19727-1.51367-3.71094-3.71094-3.71094h-10.5957v-10.5469c0-2.24609-1.46484-3.75977-3.71094-3.75977-2.14844 0-3.61328 1.51367-3.61328 3.75977v10.5469h-10.498c-2.24609 0-3.75977 1.51367-3.75977 3.71094Z"/>
  </g>
  <g transform="matrix(0.2 0 0 0.2 281.506 1933)">
   <path d="m58.5449 14.5508c27.2461 0 49.8047-22.6074 49.8047-49.8047 0-27.2461-22.6074-49.8047-49.8535-49.8047-27.1973 0-49.7559 22.5586-49.7559 49.8047 0 27.1973 22.6074 49.8047 49.8047 49.8047Zm0-8.30078c-23.0469 0-41.4551-18.457-41.4551-41.5039s18.3594-41.5039 41.4062-41.5039 41.5527 18.457 41.5527 41.5039-18.457 41.5039-41.5039 41.5039Zm-22.6562-41.5039c0 2.39258 1.66016 4.00391 4.15039 4.00391h14.3555v14.4043c0 2.44141 1.66016 4.15039 4.05273 4.15039 2.44141 0 4.15039-1.66016 4.15039-4.15039v-14.4043h14.4043c2.44141 0 4.15039-1.61133 4.15039-4.00391 0-2.44141-1.70898-4.15039-4.15039-4.15039h-14.4043v-14.3555c0-2.49023-1.70898-4.19922-4.15039-4.19922-2.39258 0-4.05273 1.70898-4.05273 4.19922v14.3555h-14.3555c-2.49023 0-4.15039 1.70898-4.15039 4.15039Z"/>
  </g>
  <g transform="matrix(0.2 0 0 0.2 304.924 1933)">
   <path d="m74.8535 28.3203c34.8145 0 63.623-28.8086 63.623-63.5742 0-34.8145-28.8574-63.623-63.6719-63.623-34.7656 0-63.5254 28.8086-63.5254 63.623 0 34.7656 28.8086 63.5742 63.5742 63.5742Zm0-9.08203c-30.1758 0-54.4434-24.3164-54.4434-54.4922 0-30.2246 24.2188-54.4922 54.3945-54.4922 30.2246 0 54.541 24.2676 54.541 54.4922 0 30.1758-24.2676 54.4922-54.4922 54.4922Zm-28.8574-54.4922c0 2.58789 1.85547 4.39453 4.58984 4.39453h19.7266v19.7754c0 2.68555 1.85547 4.58984 4.44336 4.58984 2.68555 0 4.54102-1.85547 4.54102-4.58984v-19.7754h19.7754c2.68555 0 4.58984-1.80664 4.58984-4.39453 0-2.73438-1.85547-4.58984-4.58984-4.58984h-19.7754v-19.7266c0-2.73438-1.85547-4.63867-4.54102-4.63867-2.58789 0-4.44336 1.9043-4.44336 4.63867v19.7266h-19.7266c-2.73438 0-4.58984 1.85547-4.58984 4.58984Z"/>
  </g>
  <text style="stroke:none;fill:black;font-family:sans-serif;font-size:13;font-weight:bold;" transform="matrix(1 0 0 1 263 1953)">Design Variations</text>
  <text style="stroke:none;fill:black;font-family:sans-serif;font-size:13;" transform="matrix(1 0 0 1 263 1971)">Symbols are supported in up to nine weights and three scales.</text>
  <text style="stroke:none;fill:black;font-family:sans-serif;font-size:13;" transform="matrix(1 0 0 1 263 1989)">For optimal layout with text and other symbols, vertically align</text>
  <text style="stroke:none;fill:black;font-family:sans-serif;font-size:13;" transform="matrix(1 0 0 1 263 2007)">symbols with the adjacent text.</text>
  <line style="fill:none;stroke:#00AEEF;stroke-width:0.5;opacity:1.0;" x1="776" x2="776" y1="1919" y2="1933"/>
  <g transform="matrix(0.2 0 0 0.2 776 1933)">
   <path d="m16.5527 0.78125c2.58789 0 3.85742-0.976562 4.78516-3.71094l6.29883-17.2363h28.8086l6.29883 17.2363c0.927734 2.73438 2.19727 3.71094 4.73633 3.71094 2.58789 0 4.24805-1.5625 4.24805-4.00391 0-0.830078-0.146484-1.61133-0.537109-2.63672l-22.9004-60.9863c-1.12305-2.97852-3.125-4.49219-6.25-4.49219-3.02734 0-5.07812 1.46484-6.15234 4.44336l-22.9004 61.084c-0.390625 1.02539-0.537109 1.80664-0.537109 2.63672 0 2.44141 1.5625 3.95508 4.10156 3.95508Zm13.4766-28.3691 11.8652-32.8613h0.244141l11.8652 32.8613Z"/>
  </g>
  <line style="fill:none;stroke:#00AEEF;stroke-width:0.5;opacity:1.0;" x1="792.836" x2="792.836" y1="1919" y2="1933"/>
  <text style="stroke:none;fill:black;font-family:sans-serif;font-size:13;font-weight:bold;" transform="matrix(1 0 0 1 776 1953)">Margins</text>
  <text style="stroke:none;fill:black;font-family:sans-serif;font-size:13;" transform="matrix(1 0 0 1 776 1971)">Leading and trailing margins on the left and right side of each symbol</text>
  <text style="stroke:none;fill:black;font-family:sans-serif;font-size:13;" transform="matrix(1 0 0 1 776 1989)">can be adjusted by modifying the x-location of the margin guidelines.</text>
  <text style="stroke:none;fill:black;font-family:sans-serif;font-size:13;" transform="matrix(1 0 0 1 776 2007)">Modifications are automatically applied proportionally to all</text>
  <text style="stroke:none;fill:black;font-family:sans-serif;font-size:13;" transform="matrix(1 0 0 1 776 2025)">scales and weights.</text>
  <g transform="matrix(0.2 0 0 0.2 1289 1933)">
   <path d="m14.209 9.32617 8.49609 8.54492c4.29688 4.3457 9.22852 4.05273 13.8672-1.07422l53.4668-58.9355-4.83398-4.88281-53.0762 58.3984c-1.75781 2.00195-3.41797 2.49023-5.76172 0.146484l-5.85938-5.81055c-2.34375-2.29492-1.80664-4.00391 0.195312-5.81055l57.373-54.0039-4.88281-4.83398-57.959 54.4434c-4.93164 4.58984-5.32227 9.47266-1.02539 13.8184Zm32.0801-90.9668c-2.09961 2.05078-2.24609 4.93164-1.07422 6.88477 1.17188 1.80664 3.4668 2.97852 6.68945 2.14844 7.32422-1.70898 14.9414-2.00195 22.0703 2.68555l-2.92969 7.27539c-1.70898 4.15039-0.830078 7.08008 1.85547 9.81445l11.4746 11.5723c2.44141 2.44141 4.49219 2.53906 7.32422 2.05078l5.32227-0.976562 3.32031 3.36914-0.195312 2.7832c-0.195312 2.49023 0.439453 4.39453 2.88086 6.78711l3.80859 3.71094c2.39258 2.39258 5.46875 2.53906 7.8125 0.195312l14.5508-14.5996c2.34375-2.34375 2.24609-5.32227-0.146484-7.71484l-3.85742-3.80859c-2.39258-2.39258-4.24805-3.17383-6.64062-2.97852l-2.88086 0.244141-3.22266-3.17383 1.2207-5.61523c0.634766-2.83203-0.146484-5.0293-3.07617-7.95898l-10.9863-10.9375c-16.6992-16.6016-38.8672-16.2109-53.3203-1.75781Zm7.4707 1.85547c12.1582-8.88672 28.6133-7.37305 39.7461 3.75977l12.1582 12.0605c1.17188 1.17188 1.36719 2.09961 1.02539 3.80859l-1.61133 7.42188 7.51953 7.42188 4.93164-0.292969c1.26953-0.0488281 1.66016 0.0488281 2.63672 1.02539l2.88086 2.88086-12.207 12.207-2.88086-2.88086c-0.976562-0.976562-1.12305-1.36719-1.07422-2.68555l0.341797-4.88281-7.4707-7.42188-7.61719 1.26953c-1.61133 0.341797-2.34375 0.195312-3.56445-0.976562l-10.0098-10.0098c-1.26953-1.17188-1.41602-2.00195-0.634766-3.85742l4.39453-10.4492c-7.8125-7.27539-17.9688-10.4004-28.125-7.42188-0.78125 0.195312-1.07422-0.439453-0.439453-0.976562Z"/>
  </g>
  <text style="stroke:none;fill:black;font-family:sans-serif;font-size:13;font-weight:bold;" transform="matrix(1 0 0 1 1289 1953)">Exporting</text>
  <text style="stroke:none;fill:black;font-family:sans-serif;font-size:13;" transform="matrix(1 0 0 1 1289 1971)">Symbols should be outlined when exporting to ensure the</text>
  <text style="stroke:none;fill:black;font-family:sans-serif;font-size:13;" transform="matrix(1 0 0 1 1289 1989)">design is preserved when submitting to Xcode.</text>
  <text id="template-version" style="stroke:none;fill:black;font-family:sans-serif;font-size:13;text-anchor:end;" transform="matrix(1 0 0 1 3036 1933)">Template v.4.0</text>
  <text style="stroke:none;fill:black;font-family:sans-serif;font-size:13;text-anchor:end;" transform="matrix(1 0 0 1 3036 1951)">Requires Xcode 14 or greater</text>
  <text id="descriptive-name" style="stroke:none;fill:black;font-family:sans-serif;font-size:13;text-anchor:end;" transform="matrix(1 0 0 1 3036 1969)">Generated from newspaper</text>
  <text style="stroke:none;fill:black;font-family:sans-serif;font-size:13;text-anchor:end;" transform="matrix(1 0 0 1 3036 1987)">Typeset at 100.0 points</text>
  <text style="stroke:none;fill:black;font-family:sans-serif;font-size:13;" transform="matrix(1 0 0 1 263 726)">Small</text>
  <text style="stroke:none;fill:black;font-family:sans-serif;font-size:13;" transform="matrix(1 0 0 1 263 1156)">Medium</text>
  <text style="stroke:none;fill:black;font-family:sans-serif;font-size:13;" transform="matrix(1 0 0 1 263 1586)">Large</text>
 </g>
 <g id="Guides">
  <g id="H-reference" style="fill:#27AAE1;stroke:none;" transform="matrix(1 0 0 1 339 696)">
   <path d="M0.993654 0L3.63775 0L29.3281-67.1323L30.0303-67.1323L30.0303-70.459L28.1226-70.459ZM11.6885-24.4799L46.9815-24.4799L46.2315-26.7285L12.4385-26.7285ZM55.1196 0L57.7637 0L30.6382-70.459L29.4326-70.459L29.4326-67.1323Z"/>
  </g>
  <line id="Baseline-S" style="fill:none;stroke:#27AAE1;opacity:1;stroke-width:0.5;" x1="263" x2="3036" y1="696" y2="696"/>
  <line id="Capline-S" style="fill:none;stroke:#27AAE1;opacity:1;stroke-width:0.5;" x1="263" x2="3036" y1="625.541" y2="625.541"/>
  <g id="H-reference" style="fill:#27AAE1;stroke:none;" transform="matrix(1 0 0 1 339 1126)">
   <path d="M0.993654 0L3.63775 0L29.3281-67.1323L30.0303-67.1323L30.0303-70.459L28.1226-70.459ZM11.6885-24.4799L46.9815-24.4799L46.2315-26.7285L12.4385-26.7285ZM55.1196 0L57.7637 0L30.6382-70.459L29.4326-70.459L29.4326-67.1323Z"/>
  </g>
  <line id="Baseline-M" style="fill:none;stroke:#27AAE1;opacity:1;stroke-width:0.5;" x1="263" x2="3036" y1="1126" y2="1126"/>
  <line id="Capline-M" style="fill:none;stroke:#27AAE1;opacity:1;stroke-width:0.5;" x1="263" x2="3036" y1="1055.54" y2="1055.54"/>
  <g id="H-reference" style="fill:#27AAE1;stroke:none;" transform="matrix(1 0 0 1 339 1556)">
   <path d="M0.993654 0L3.63775 0L29.3281-67.1323L30.0303-67.1323L30.0303-70.459L28.1226-70.459ZM11.6885-24.4799L46.9815-24.4799L46.2315-26.7285L12.4385-26.7285ZM55.1196 0L57.7637 0L30.6382-70.459L29.4326-70.459L29.4326-67.1323Z"/>
  </g>
  <line id="Baseline-L" style="fill:none;stroke:#27AAE1;opacity:1;stroke-width:0.5;" x1="263" x2="3036" y1="1556" y2="1556"/>
  <line id="Capline-L" style="fill:none;stroke:#27AAE1;opacity:1;stroke-width:0.5;" x1="263" x2="3036" y1="1485.54" y2="1485.54"/>
  <line id="left-margin-Ultralight-S" style="fill:none;stroke:#00AEEF;stroke-width:0.5;opacity:1.0;" x1="509.57" x2="509.57" y1="600.785" y2="720.121"/>
  <line id="right-margin-Ultralight-S" style="fill:none;stroke:#00AEEF;stroke-width:0.5;opacity:1.0;" x1="609.852" x2="609.852" y1="600.785" y2="720.121"/>
  <line id="left-margin-Regular-S" style="fill:none;stroke:#00AEEF;stroke-width:0.5;opacity:1.0;" x1="1395.89" x2="1395.89" y1="600.785" y2="720.121"/>
  <line id="right-margin-Regular-S" style="fill:none;stroke:#00AEEF;stroke-width:0.5;opacity:1.0;" x1="1503.8" x2="1503.8" y1="600.785" y2="720.121"/>
  <line id="left-margin-Black-S" style="fill:none;stroke:#00AEEF;stroke-width:0.5;opacity:1.0;" x1="2874.86" x2="2874.86" y1="600.785" y2="720.121"/>
  <line id="right-margin-Black-S" style="fill:none;stroke:#00AEEF;stroke-width:0.5;opacity:1.0;" x1="2991.94" x2="2991.94" y1="600.785" y2="720.121"/>
 </g>
 <g id="Symbols">
  <g id="Black-S" transform="matrix(1 0 0 1 2874.86 696)">
   <path class="monochrome-0 multicolor-0:tintColor hierarchical-0:primary SFSymbolsPreview007AFF" d="M9.76562-7.08008C9.76562 2.05078 16.6504 8.1543 27.002 8.1543L92.0898 8.1543C101.66 8.1543 107.324 2.49023 107.324-7.08008L107.324-63.3301C107.324-72.9004 101.66-78.5645 92.0898-78.5645L45.3125-78.5645C35.7422-78.5645 30.0781-72.9004 30.0781-63.3301L30.0781-51.8066L25-51.8066C15.4297-51.8066 9.76562-46.1426 9.76562-36.5723ZM44.0918-6.00586C44.1895-6.34766 44.2383-6.5918 44.2383-7.08008L44.2383-61.084C44.2383-63.3301 45.1172-64.4043 47.5586-64.4043L89.8438-64.4043C92.2852-64.4043 93.1641-63.3301 93.1641-61.084L93.1641-9.32617C93.1641-7.08008 92.2852-6.00586 89.8438-6.00586ZM54.5898-14.3555L62.2559-14.3555C65.4785-14.3555 67.5293-16.4062 67.5293-19.6289L67.5293-27.3926C67.5293-30.5664 65.4785-32.6172 62.2559-32.6172L54.5898-32.6172C51.3672-32.6172 49.3164-30.5664 49.3164-27.3926L49.3164-19.6289C49.3164-16.4062 51.3672-14.3555 54.5898-14.3555ZM52.8809-49.6094L84.5215-49.6094C86.4746-49.6094 88.0371-51.1719 88.0371-53.125C88.0371-55.0781 86.5234-56.5918 84.5215-56.5918L52.8809-56.5918C50.8789-56.5918 49.3652-55.0781 49.3652-53.125C49.3652-51.1719 50.9277-49.6094 52.8809-49.6094ZM52.8809-37.6465L84.5215-37.6465C86.5234-37.6465 88.0371-39.1602 88.0371-41.1133C88.0371-43.0664 86.4746-44.6289 84.5215-44.6289L52.8809-44.6289C50.9277-44.6289 49.3652-43.0664 49.3652-41.1133C49.3652-39.1602 50.8789-37.6465 52.8809-37.6465ZM23.9258-9.32617L23.9258-34.3262C23.9258-36.3281 25.2441-37.6465 27.2461-37.6465L30.0781-37.6465L30.0781-9.32617C30.0781-7.32422 28.8574-6.00586 27.002-6.00586C25.1465-6.00586 23.9258-7.32422 23.9258-9.32617ZM73.8281-14.3555L84.5215-14.3555C86.4746-14.3555 87.9883-15.8691 87.9883-17.8223C87.9883-19.7754 86.4746-21.3379 84.5215-21.3379L73.8281-21.3379C71.875-21.3379 70.3125-19.7754 70.3125-17.8223C70.3125-15.8691 71.8262-14.3555 73.8281-14.3555ZM73.8281-25.6836L84.5215-25.6836C86.4746-25.6836 87.9883-27.1973 87.9883-29.1016C87.9883-31.1035 86.4746-32.6172 84.5215-32.6172L73.8281-32.6172C71.8262-32.6172 70.3125-31.1035 70.3125-29.1016C70.3125-27.1973 71.875-25.6836 73.8281-25.6836Z"/>
  </g>
  <g id="Regular-S" transform="matrix(1 0 0 1 1395.89 696)">
   <path class="monochrome-0 multicolor-0:tintColor hierarchical-0:primary SFSymbolsPreview007AFF" d="M9.76562-6.44531C9.76562 1.80664 13.7695 5.9082 22.0703 5.9082L85.6934 5.9082C94.043 5.9082 98.1445 1.85547 98.1445-6.34766L98.1445-64.1602C98.1445-72.3633 94.043-76.416 85.6934-76.416L39.7461-76.416C31.3965-76.416 27.2949-72.3633 27.2949-64.1602L27.2949-46.7773L18.0176-46.7773C12.8418-46.7773 9.76562-43.9453 9.76562-39.1113ZM33.2031-1.12305C33.9355-2.83203 34.3262-4.73633 34.3262-6.88477L34.3262-63.7695C34.3262-67.4805 36.3281-69.3848 39.8438-69.3848L85.5957-69.3848C89.1113-69.3848 91.1133-67.4805 91.1133-63.7695L91.1133-6.73828C91.1133-3.02734 89.1113-1.12305 85.5957-1.12305ZM45.9961-12.6465L55.8594-12.6465C58.9355-12.6465 60.7422-14.4531 60.7422-17.4805L60.7422-26.8066C60.7422-29.834 58.9355-31.6406 55.8594-31.6406L45.9961-31.6406C42.9688-31.6406 41.1621-29.834 41.1621-26.8066L41.1621-17.4805C41.1621-14.4531 42.9688-12.6465 45.9961-12.6465ZM43.8965-53.0762L81.5918-53.0762C83.1055-53.0762 84.2285-54.248 84.2285-55.7617C84.2285-57.2266 83.1055-58.3496 81.5918-58.3496L43.8965-58.3496C42.334-58.3496 41.1621-57.2266 41.1621-55.7617C41.1621-54.248 42.334-53.0762 43.8965-53.0762ZM43.8965-39.7461L81.5918-39.7461C83.1055-39.7461 84.2285-40.8691 84.2285-42.334C84.2285-43.8477 83.1055-45.0195 81.5918-45.0195L43.8965-45.0195C42.334-45.0195 41.1621-43.8477 41.1621-42.334C41.1621-40.8691 42.334-39.7461 43.8965-39.7461ZM16.7969-6.39648L16.7969-37.6953C16.7969-38.9648 17.5781-39.7461 18.8477-39.7461L27.2949-39.7461L27.2949-6.39648C27.2949-3.32031 24.9512-1.12305 22.0703-1.12305C19.1406-1.12305 16.7969-3.4668 16.7969-6.39648ZM67.5293-12.6465L81.5918-12.6465C83.1055-12.6465 84.2285-13.8184 84.2285-15.2344C84.2285-16.748 83.1055-17.9688 81.5918-17.9688L67.5293-17.9688C65.9668-17.9688 64.8438-16.748 64.8438-15.2344C64.8438-13.8184 65.9668-12.6465 67.5293-12.6465ZM67.5293-26.3672L81.5918-26.3672C83.1055-26.3672 84.2285-27.4902 84.2285-28.9551C84.2285-30.4688 83.1055-31.6406 81.5918-31.6406L67.5293-31.6406C65.9668-31.6406 64.8438-30.4688 64.8438-28.9551C64.8438-27.4902 65.9668-26.3672 67.5293-26.3672Z"/>
  </g>
  <g id="Ultralight-S" transform="matrix(1 0 0 1 509.57 696)">
   <path class="monochrome-0 multicolor-0:tintColor hierarchical-0:primary SFSymbolsPreview007AFF" d="M9.76562-2.94876C9.76562 1.94287 12.4981 5.18165 17.8926 5.18165L80.5621 5.18165C87.0953 5.18165 90.5157 1.71924 90.5157-4.80372L90.5157-65.5225C90.5157-72.0454 87.0953-75.5078 80.5621-75.5078L33.7974-75.5078C27.2642-75.5078 23.7984-72.0454 23.7984-65.5225L23.7984-43.3716L15.293-43.3716C11.8428-43.3716 9.76562-41.4932 9.76562-38.294ZM23.8487 2.96384C25.3077 1.52731 26.0162-0.513217 26.0162-2.97952L26.0162-65.4043C26.0162-70.5683 28.6993-73.29 33.8951-73.29L80.4644-73.29C85.6148-73.29 88.3433-70.5683 88.3433-65.4043L88.3433-4.92189C88.3433 0.287572 85.6148 2.96384 80.4644 2.96384ZM40.3653-12.9189L50.4102-12.9189C52.896-12.9189 54.521-14.5439 54.521-16.981L54.521-25.1265C54.521-27.5635 52.896-29.1885 50.4102-29.1885L40.3653-29.1885C37.9283-29.1885 36.3033-27.5635 36.3033-25.1265L36.3033-16.981C36.3033-14.5439 37.9283-12.9189 40.3653-12.9189ZM37.6299-55.3013L76.7784-55.3013C77.3838-55.3013 77.8711-55.792 77.8711-56.352C77.8711-56.9541 77.3838-57.4414 76.7784-57.4414L37.6299-57.4414C36.9756-57.4414 36.5303-56.9541 36.5303-56.352C36.5303-55.792 36.9756-55.3013 37.6299-55.3013ZM37.6299-41.1992L76.7784-41.1992C77.3838-41.1992 77.8711-41.6411 77.8711-42.2432C77.8711-42.8486 77.3838-43.294 76.7784-43.294L37.6299-43.294C36.9756-43.294 36.5303-42.8486 36.5303-42.2432C36.5303-41.6411 36.9756-41.1992 37.6299-41.1992ZM11.9834-3.03616L11.9834-38.104C11.9834-40.0547 13.2188-41.1992 15.2603-41.1992L23.7984-41.1992L23.7984-3.03616C23.7984 0.53952 21.4092 2.96384 17.8926 2.96384C14.3726 2.96384 11.9834 0.529265 11.9834-3.03616ZM61.7168-12.9189L76.7329-12.9189C77.3384-12.9189 77.8257-13.4097 77.8257-13.9629C77.8257-14.5684 77.3384-15.0625 76.7329-15.0625L61.7168-15.0625C61.1079-15.0625 60.6206-14.5684 60.6206-13.9629C60.6206-13.4097 61.1079-12.9189 61.7168-12.9189ZM61.7168-27.0483L76.7329-27.0483C77.3384-27.0483 77.8257-27.5356 77.8257-28.1377C77.8257-28.6978 77.3384-29.1885 76.7329-29.1885L61.7168-29.1885C61.1079-29.1885 60.6206-28.6978 60.6206-28.1377C60.6206-27.5356 61.1079-27.0483 61.7168-27.0483Z"/>
  </g>
 </g>
</svg>
